<?xml version="1.0" encoding="utf-8"?>
<!-- Generator: Adobe Illustrator 16.0.0, SVG Export Plug-In . SVG Version: 6.00 Build 0)  -->
<!DOCTYPE svg PUBLIC "-//W3C//DTD SVG 1.1//EN" "http://www.w3.org/Graphics/SVG/1.1/DTD/svg11.dtd">
<svg version="1.1" id="Layer_1" xmlns="http://www.w3.org/2000/svg" xmlns:xlink="http://www.w3.org/1999/xlink" x="0px" y="0px"
	 width="88.088px" height="35.573px" viewBox="0 0 88.088 35.573" enable-background="new 0 0 88.088 35.573" xml:space="preserve">
<g>
	<path fill="#FFFFFF" d="M81.664,23.021L81.661,6.298c-0.002-2.194-1.788-3.979-3.979-3.983L67.458,2.319
		c-2.192,0.003-3.978,1.789-3.98,3.983l0.004,22.697c0.004,2.193,1.789,3.979,3.981,3.98l10.221-0.001
		c2.192-0.005,3.978-1.79,3.98-3.981v-2.473c-0.691,0.787-1.611,1.369-2.652,1.639l-0.002,0.832c0,0.353-0.139,0.685-0.391,0.937
		c-0.255,0.254-0.585,0.392-0.938,0.393l-10.22,0.002c-0.351-0.001-0.684-0.14-0.936-0.391c-0.251-0.254-0.391-0.585-0.392-0.937
		l0.001-2.222c0.416,0.147,0.863,0.229,1.327,0.23l10.221-0.001C79.877,27.003,81.663,25.216,81.664,23.021z M70.01,3.378
		l5.119-0.001c0.159,0,0.286,0.128,0.286,0.285c-0.002,0.158-0.128,0.285-0.284,0.283l-5.12,0.002c-0.158,0-0.286-0.127-0.285-0.284
		C69.726,3.505,69.852,3.379,70.01,3.378z M67.464,24.353c-0.351-0.001-0.687-0.141-0.938-0.393
		c-0.252-0.254-0.39-0.585-0.391-0.938L66.133,6.3c-0.001-0.35,0.139-0.684,0.391-0.936c0.252-0.252,0.586-0.391,0.937-0.391
		l10.219-0.001c0.354,0,0.686,0.139,0.938,0.39c0.251,0.253,0.39,0.587,0.391,0.937l0.003,16.724
		c0.001,0.351-0.139,0.684-0.391,0.938c-0.253,0.25-0.586,0.391-0.938,0.391L67.464,24.353z M71.736,28.693
		c0,0.461,0.375,0.835,0.84,0.837c0.46,0,0.833-0.376,0.833-0.837c-0.001-0.464-0.374-0.836-0.837-0.837
		C72.111,27.857,71.737,28.229,71.736,28.693z"/>
</g>
<g>
	<path fill="#909090" d="M24.738,23.03L24.75,6.306c0.001-2.193-1.783-3.981-3.976-3.986L10.55,2.314
		C8.359,2.316,6.572,4.1,6.567,6.295L6.551,28.991c0,2.193,1.786,3.981,3.978,3.984l10.22,0.007c2.192-0.002,3.98-1.785,3.984-3.978
		l0.003-2.472c-0.693,0.786-1.612,1.368-2.655,1.636l-0.002,0.832c-0.001,0.352-0.138,0.687-0.394,0.937
		c-0.252,0.255-0.583,0.392-0.936,0.392l-10.22-0.006c-0.351-0.001-0.684-0.142-0.935-0.393c-0.251-0.253-0.391-0.585-0.391-0.938
		l0.004-2.222c0.415,0.149,0.862,0.23,1.325,0.232l10.222,0.009C22.948,27.01,24.735,25.224,24.738,23.03z M13.1,3.376l5.122,0.003
		c0.157,0,0.285,0.128,0.285,0.285c-0.003,0.158-0.128,0.284-0.284,0.282l-5.122-0.001c-0.157,0-0.285-0.128-0.283-0.285
		C12.817,3.504,12.944,3.377,13.1,3.376z M10.536,24.349c-0.349,0-0.685-0.142-0.935-0.393c-0.254-0.255-0.391-0.586-0.392-0.938
		L9.223,6.295c0-0.351,0.139-0.684,0.39-0.935c0.254-0.252,0.589-0.391,0.938-0.391l10.218,0.007
		c0.354,0.001,0.687,0.14,0.938,0.391c0.251,0.253,0.392,0.587,0.392,0.938l-0.013,16.724c0,0.351-0.139,0.686-0.392,0.937
		c-0.254,0.252-0.587,0.391-0.938,0.392L10.536,24.349z M14.807,28.693c-0.001,0.46,0.374,0.836,0.837,0.838
		c0.461,0,0.835-0.375,0.834-0.837c0-0.463-0.372-0.836-0.835-0.838C15.181,27.856,14.808,28.23,14.807,28.693z"/>
</g>
</svg>
